# xmcd CD database file
#
# Track frame offsets:
#	150
#	17986
#	36533
#	53907
#	74239
#	95639
#	114946
#	133711
#	148798
#	166111
#	185162
#	205613
#	226611
#	245266
#	263278
#	284848
#	308352
#	326225
#
# Disc length: 4558 seconds
#
# Revision: 0
# Processed by: cddbd v1.5.1PL0 Copyright (c) Steve Scherf et al.
# Submitted via: CDex 1.51
#
DISCID=0a11cc12
DTITLE=Adolescent's - Lo nuevo y Lo mejor 2004
DYEAR=2004
DGENRE=Salsa
TTITLE0=Recuerdos
TTITLE1=Larino
TTITLE2=Envidioso
TTITLE3=Virgen
TTITLE4=Chico Vacilin
TTITLE5=Dos Inocnetes
TTITLE6=No te burles
TTITLE7=Anciano
TTITLE8=Contigo o con el
TTITLE9=Me gustas (Merengue)
TTITLE10=Corazon, corazon
TTITLE11=Persona ideal
TTITLE12=Arrepentida
TTITLE13=Llamame
TTITLE14=Me nego
TTITLE15=Y te marchas
TTITLE16=Recuerdos
TTITLE17=Me gustas (salsa)
EXTD=YEAR: 2004
EXTT0=
EXTT1=
EXTT2=
EXTT3=
EXTT4=
EXTT5=
EXTT6=
EXTT7=
EXTT8=
EXTT9=
EXTT10=
EXTT11=
EXTT12=
EXTT13=
EXTT14=
EXTT15=
EXTT16=
EXTT17=
PLAYORDER=
